<?xml version="1.0" encoding="utf-8"?>
<!-- Generator: Adobe Illustrator 24.0.1, SVG Export Plug-In . SVG Version: 6.00 Build 0)  -->
<svg version="1.1" id="Camada_1" xmlns="http://www.w3.org/2000/svg" xmlns:xlink="http://www.w3.org/1999/xlink" x="0px" y="0px"
	 viewBox="0 0 356.1 356.1" style="enable-background:new 0 0 356.1 356.1;" xml:space="preserve">
<style type="text/css">
	.st0{fill:#FFFFFF;}
	.st1{opacity:0.7;}
</style>
<title>Ativo 1</title>
<g id="Camada_2_1_">
	<g id="Camada_1-2">
		<circle class="st0" cx="178" cy="178" r="178"/>
		<path d="M112.8,222.8c-11.2,1.1-21.8,5.6-30.4,12.8c-14,12-15.6,33.1-3.5,47.1c0,0,0,0,0,0c14,16.1,38.9,16.8,58,12.8
			c13.2-2.7,25.5-8.3,38.3-12.2c5.5-1.7,11.4-3,17.2-2.1c2.9,0.4,6,2.1,7,5c1.4,4.2-6.9,4.9-8.8,5c-4.2,0.3-4.2,6.9,0,6.6
			c6.5-0.4,13.4-2.3,15.2-9.2c1.8-6.5-4.6-11.2-9.7-13.2c-9.1-3.5-20.9,0.9-29.4,3.8c-13.8,4.7-27.3,10.1-42,11.8
			c-22.7,2.6-53.9-10.4-46.1-38c4-14.1,20.5-22.3,34.2-23.6C116.9,228.9,117,222.3,112.8,222.8L112.8,222.8z"/>
		<path d="M148.3,252.5c0,0-14.5,1.4-14.2,10.2c0,0,2.1,2.9,10.8,3.2s18.5-0.1,20.5-11.8L148.3,252.5z"/>
		<path d="M220.8,252.5c0,0,14.5,1.4,14.2,10.2c0,0-2,2.9-10.8,3.2s-18.5-0.1-20.5-11.8L220.8,252.5z"/>
		<path d="M263.3,72.9c-9-6.3-31.3-17.3-47,5s3.2,47.3,3.2,47.3l4.7,3.3l4.7,3.3c0,0,30,9.3,45.7-13S272.3,79.2,263.3,72.9z"/>
		<path d="M257.3,81.5c-7.6-5.3-26.5-14.6-39.8,4.2s2.7,40,2.7,40l3.9,2.8l3.9,2.8c0,0,25.3,7.9,38.6-10.9
			C279.9,101.6,264.8,86.8,257.3,81.5z"/>
		<path d="M103.6,72.9c9-6.3,31.3-17.3,47,5s-3.2,47.3-3.2,47.3l-4.7,3.3l-4.7,3.3c0,0-30,9.3-45.7-13S94.7,79.2,103.6,72.9z"/>
		<path d="M109.7,81.5c7.6-5.3,26.5-14.6,39.7,4.2s-2.7,40-2.7,40l-3.9,2.8l-4,2.8c0,0-25.3,7.9-38.6-10.9S102.1,86.8,109.7,81.5z"
			/>
		<path d="M243,134.9c-19.3-29.9-59.3-28.6-59.3-28.6l0,0c0,0-40-1.3-59.3,28.6s-23.9,80.4-14.7,98.8s29.9,24.4,74,24.4l0,0
			c44.1,0,64.8-6,74-24.4C266.9,215.4,262.3,164.8,243,134.9z"/>
		<path d="M183.7,258c27.6,0,46.1-2.3,58.2-8.6c0.2-1.3,0.4-2.7,0.4-4c0-19.9-26.2-36-58.6-36s-58.6,16.1-58.6,36
			c0,1.3,0.1,2.7,0.4,4C137.6,255.7,156.1,258,183.7,258z"/>
		<circle cx="219.2" cy="153.7" r="5.5"/>
		<circle cx="148.3" cy="153.7" r="5.5"/>
		<path d="M183.7,161.6c0,0-5.2,0-5.6,1.1s2.9,5.2,5.6,5.2s6-4.1,5.6-5.2S183.7,161.6,183.7,161.6z"/>
		<path d="M199.8,164.4c-2.5,6.8-8.9,11.3-16.1,11.4l0,0c-7.2-0.1-13.6-4.6-16.1-11.4c-0.5-1.3-2.6-0.8-2.1,0.6
			c2.8,7.7,10,12.9,18.2,13l0,0c8.2-0.1,15.4-5.3,18.2-13C202.4,163.7,200.3,163.1,199.8,164.4z"/>
		<path d="M247.9,163.9h16.6c0.6-0.1,1-0.6,1-1.2c-0.1-0.5-0.5-0.9-1-1h-16.6c-0.6,0.1-1,0.6-1,1.2
			C247,163.4,247.4,163.8,247.9,163.9z"/>
		<path d="M248.6,157.7l15.9-4.9c0.6-0.2,0.9-0.8,0.7-1.4s-0.8-0.9-1.4-0.7l0,0l-15.9,4.9c-0.6,0.2-0.9,0.8-0.6,1.4
			C247.6,157.6,248.1,157.9,248.6,157.7L248.6,157.7z"/>
		<path d="M248.6,167.8l15.9,4.9c0.6,0.2,0.9,0.8,0.7,1.4s-0.8,0.9-1.4,0.7l-15.9-4.9c-0.6-0.2-0.9-0.8-0.6-1.4
			C247.6,168,248.1,167.7,248.6,167.8L248.6,167.8z"/>
		<path d="M120.9,163.9h-16.6c-0.6-0.1-1-0.6-1-1.2c0.1-0.5,0.5-0.9,1-1h16.7c0.6,0.1,1,0.6,1,1.2
			C121.8,163.4,121.4,163.8,120.9,163.9z"/>
		<path d="M120.2,157.7l-15.9-4.9c-0.6-0.2-0.9-0.8-0.7-1.4c0.2-0.6,0.8-0.9,1.4-0.7l0,0l15.9,4.9c0.6,0.2,0.9,0.8,0.7,1.4
			C121.3,157.6,120.7,157.9,120.2,157.7L120.2,157.7z"/>
		<path d="M120.2,167.8l-15.9,4.9c-0.6,0.2-0.9,0.8-0.7,1.4c0.2,0.6,0.8,0.9,1.4,0.7l15.9-4.9c0.6-0.2,0.9-0.8,0.7-1.4
			C121.3,168,120.7,167.7,120.2,167.8L120.2,167.8z"/>
		<path d="M219.9,201.1c-6.8,9-19.9,28.1-14.2,34.2c5.4,5.8,22.1-5.8,31.3-13.1C234.3,214.1,228.2,206.7,219.9,201.1z"/>
		<path d="M146.5,201.1c6.8,9,19.9,28.1,14.2,34.2c-5.4,5.8-22.1-5.8-31.3-13.1C132.1,214.1,138.2,206.7,146.5,201.1z"/>
		<g class="st1">
			<ellipse cx="137.6" cy="169.6" rx="11.2" ry="7.6"/>
			<ellipse cx="229.7" cy="169.6" rx="11.2" ry="7.6"/>
		</g>
	</g>
</g>
</svg>
